<svg width="216" height="13" viewBox="0 0 216 13" fill="none" xmlns="http://www.w3.org/2000/svg">
<path d="M1.072 2.392C0.96 2.392 0.896 2.312 0.896 2.248V0.344C0.896 0.28 0.96 0.2 1.072 0.2H5.424C5.536 0.2 5.584 0.28 5.584 0.344V2.392H3.152H1.072ZM3.152 4.584H5.584V9.224C5.584 13 1.76 13 1.76 13H0.176C0.08 13 0 12.92 0 12.856V10.776C0 10.696 0.08 10.632 0.176 10.632H1.76C3.152 10.632 3.152 9.224 3.152 9.224V4.584ZM19.955 10.616V13H14.051C13.955 13 13.875 12.92 13.875 12.856V0.344C13.875 0.28 13.955 0.2 14.051 0.2H19.955V2.52H16.323V5.416H21.347C21.443 5.416 21.523 5.48 21.523 5.56V7.592C21.523 7.656 21.443 7.736 21.347 7.736H16.323V10.616H19.955ZM39.9543 12.808C40.0023 12.904 39.9223 13 39.8103 13H37.6023C37.5543 13 37.4743 12.968 37.4583 12.904L34.9303 5.768L32.4343 12.904C32.4183 12.968 32.3383 13 32.2743 13H30.0823C29.9383 13 29.8742 12.904 29.9223 12.808L34.7703 0.296C34.8183 0.167999 35.0423 0.167999 35.0903 0.296L39.9543 12.808ZM59.0608 0.2C59.1728 0.2 59.2368 0.28 59.2368 0.344V12.856C59.2368 12.92 59.1728 13 59.0608 13H56.9488C56.9167 13 56.8208 12.984 56.8048 12.952L50.9168 4.52V9.928H48.4688V0.344C48.4688 0.28 48.5488 0.2 48.6288 0.2H50.7568C50.7888 0.2 50.8848 0.216 50.9008 0.247999L56.8048 8.68V0.344C56.8048 0.28 56.8848 0.2 56.9968 0.2H59.0608ZM87.0933 10.648H89.5413V12.856C89.5413 12.92 89.4773 13 89.3653 13H87.2853C84.1013 13 79.7812 12.072 79.7812 6.6C79.7812 0.919999 84.1493 0.2 87.2853 0.2H89.3653C89.4773 0.2 89.5413 0.28 89.5413 0.344V5.368H87.0933V2.536C84.3093 2.392 82.2453 3.56 82.2453 6.6C82.2453 10.552 85.5413 10.712 87.0933 10.648ZM100.479 5.752H98.0312V0.344C98.0312 0.28 98.1113 0.2 98.2073 0.2H100.303C100.415 0.2 100.479 0.28 100.479 0.344V5.4V5.752ZM107.599 0.2C107.711 0.2 107.775 0.28 107.775 0.344V12.856C107.775 12.92 107.711 13 107.599 13H105.503C105.407 13 105.327 12.92 105.327 12.856V10.6H100.479V12.856C100.479 12.92 100.415 13 100.303 13H98.2073C98.1113 13 98.0312 12.92 98.0312 12.856V8.2H100.479V8.216H105.327V7.784V5.4V0.344C105.327 0.28 105.407 0.2 105.503 0.2H107.599ZM126.314 12.808C126.362 12.904 126.282 13 126.17 13H123.962C123.914 13 123.834 12.968 123.818 12.904L121.29 5.768L118.794 12.904C118.778 12.968 118.698 13 118.634 13H116.442C116.298 13 116.234 12.904 116.282 12.808L121.13 0.296C121.178 0.167999 121.402 0.167999 121.45 0.296L126.314 12.808ZM145.42 0.2C145.532 0.2 145.596 0.28 145.596 0.344V12.856C145.596 12.92 145.532 13 145.42 13H143.308C143.276 13 143.18 12.984 143.164 12.952L137.276 4.52V9.928H134.828V0.344C134.828 0.28 134.908 0.2 134.988 0.2H137.116C137.148 0.2 137.244 0.216 137.26 0.247999L143.164 8.68V0.344C143.164 0.28 143.244 0.2 143.356 0.2H145.42ZM160.221 10.616V13H154.317C154.221 13 154.141 12.92 154.141 12.856V0.344C154.141 0.28 154.221 0.2 154.317 0.2H160.221V2.52H156.589V5.416H161.613C161.709 5.416 161.789 5.48 161.789 5.56V7.592C161.789 7.656 161.709 7.736 161.613 7.736H156.589V10.616H160.221ZM177.964 4.056V5.784C177.964 5.848 177.916 5.912 177.82 5.912H172.092C171.98 5.912 171.916 5.848 171.916 5.784V4.056C171.916 3.992 171.98 3.912 172.092 3.912H177.82C177.916 3.912 177.964 3.992 177.964 4.056ZM190.187 4.84H192.619V12.856C192.619 12.92 192.539 13 192.427 13H190.363C190.251 13 190.187 12.92 190.187 12.856V4.84ZM187.723 2.392C187.627 2.392 187.547 2.328 187.547 2.248V0.344C187.547 0.28 187.627 0.2 187.723 0.2H195.067C195.179 0.2 195.243 0.28 195.243 0.344V2.248C195.243 2.328 195.179 2.392 195.067 2.392H187.723ZM210.985 6.632C210.985 7.288 210.457 7.832 209.785 7.832C209.113 7.832 208.585 7.288 208.585 6.632C208.585 5.96 209.113 5.416 209.785 5.416C210.457 5.416 210.985 5.96 210.985 6.632ZM215.945 6.584C215.945 9.784 213.881 13 209.801 13C205.657 13 203.625 9.784 203.625 6.584C203.625 3.4 205.657 0.2 209.801 0.2C213.881 0.2 215.945 3.4 215.945 6.584ZM213.545 6.632C213.545 4.536 212.281 2.456 209.801 2.456C207.289 2.456 206.041 4.536 206.041 6.632C206.041 8.696 207.289 10.76 209.801 10.76C212.281 10.76 213.545 8.696 213.545 6.632Z" fill="#f3f4f6"/>
</svg>
