<svg width="230" height="28" viewBox="0 0 230 28" fill="none" xmlns="http://www.w3.org/2000/svg">
<path d="M56.952 20.256C56.184 20.256 55.5013 20.1013 54.904 19.792C54.3067 19.472 53.8373 19.008 53.496 18.4C53.1653 17.792 53 17.0453 53 16.16V15.744H54.216V16.368C54.216 17.2427 54.4613 17.9253 54.952 18.416C55.4533 18.896 56.12 19.136 56.952 19.136C57.784 19.136 58.4507 18.896 58.952 18.416C59.4533 17.9253 59.704 17.2427 59.704 16.368V9.088H60.92V16.16C60.92 17.0453 60.7493 17.792 60.408 18.4C60.0773 19.008 59.6133 19.472 59.016 19.792C58.4187 20.1013 57.7307 20.256 56.952 20.256ZM54.552 9.408V8.304H60.92V9.408H54.552Z" fill="#F3F4F6"/>
<path d="M67.5711 19.984V8.304H68.7871V19.984H67.5711ZM68.4991 19.984V18.88H74.3391V19.984H68.4991ZM68.4991 14.592V13.504H73.7951V14.592H68.4991ZM68.4991 9.408V8.304H74.1631V9.408H68.4991Z" fill="#F3F4F6"/>
<path d="M79.1157 19.984L83.4198 8.304H85.5957L90.0438 19.984H88.7957L84.6518 9.072L85.3078 9.408H83.6278L84.3158 9.072L80.3317 19.984H79.1157ZM81.4198 16.272L81.8197 15.168H87.2438L87.6598 16.272H81.4198Z" fill="#F3F4F6"/>
<path d="M95.5961 19.984V8.304H97.6281L104.028 18.88H104.54L104.22 19.136V8.304H105.388V19.984H103.34L96.9401 9.408H96.4281L96.7481 9.152V19.984H95.5961Z" fill="#F3F4F6"/>
<path d="M124.144 20.256C123.099 20.256 122.203 20.0747 121.456 19.712C120.72 19.3387 120.117 18.8533 119.648 18.256C119.189 17.6587 118.853 17.0133 118.64 16.32C118.427 15.616 118.32 14.9333 118.32 14.272V13.968C118.32 13.2533 118.427 12.544 118.64 11.84C118.864 11.1253 119.205 10.48 119.664 9.904C120.133 9.328 120.731 8.86933 121.456 8.528C122.181 8.176 123.04 8 124.032 8C125.035 8 125.899 8.176 126.624 8.528C127.36 8.88 127.947 9.376 128.384 10.016C128.821 10.6453 129.088 11.392 129.184 12.256H127.952C127.867 11.5627 127.643 10.9867 127.28 10.528C126.917 10.0587 126.453 9.70667 125.888 9.472C125.333 9.23733 124.715 9.12 124.032 9.12C123.296 9.12 122.645 9.25333 122.08 9.52C121.525 9.776 121.061 10.1387 120.688 10.608C120.315 11.0667 120.032 11.6 119.84 12.208C119.648 12.8053 119.552 13.4453 119.552 14.128C119.552 14.7787 119.643 15.4027 119.824 16C120.016 16.5973 120.304 17.136 120.688 17.616C121.072 18.0853 121.552 18.4587 122.128 18.736C122.704 19.0027 123.376 19.136 124.144 19.136C125.211 19.136 126.107 18.8693 126.832 18.336C127.557 17.792 128.005 17.0133 128.176 16H129.408C129.291 16.8 129.013 17.5253 128.576 18.176C128.139 18.816 127.547 19.3227 126.8 19.696C126.064 20.0693 125.179 20.256 124.144 20.256Z" fill="#F3F4F6"/>
<path d="M143.103 19.984V8.304H144.319V19.984H143.103ZM135.071 19.984V8.304H136.287V19.984H135.071ZM136.015 14.736V13.648H143.375V14.736H136.015Z" fill="#F3F4F6"/>
<path d="M149.866 19.984L154.17 8.304H156.346L160.794 19.984H159.546L155.402 9.072L156.058 9.408H154.378L155.066 9.072L151.082 19.984H149.866ZM152.17 16.272L152.57 15.168H157.994L158.41 16.272H152.17Z" fill="#F3F4F6"/>
<path d="M166.346 19.984V8.304H168.378L174.778 18.88H175.29L174.97 19.136V8.304H176.138V19.984H174.09L167.69 9.408H167.178L167.498 9.152V19.984H166.346Z" fill="#F3F4F6"/>
<path d="M182.984 19.984V8.304H184.2V19.984H182.984ZM183.912 19.984V18.88H189.752V19.984H183.912ZM183.912 14.592V13.504H189.208V14.592H183.912ZM183.912 9.408V8.304H189.576V9.408H183.912Z" fill="#F3F4F6"/>
<path d="M194.935 16.048V15.024H200.551V16.048H194.935Z" fill="#F3F4F6"/>
<path d="M208.14 19.984V9.104H209.356V19.984H208.14ZM204.492 9.408V8.304H213.004V9.408H204.492Z" fill="#F3F4F6"/>
<path d="M223.219 20.256C222.206 20.256 221.326 20.0747 220.579 19.712C219.833 19.3493 219.214 18.8693 218.723 18.272C218.233 17.6747 217.865 17.024 217.619 16.32C217.374 15.616 217.251 14.928 217.251 14.256V13.968C217.251 13.2533 217.374 12.544 217.619 11.84C217.875 11.1253 218.254 10.48 218.755 9.904C219.257 9.328 219.881 8.86933 220.627 8.528C221.374 8.176 222.238 8 223.219 8C224.211 8 225.075 8.176 225.811 8.528C226.558 8.86933 227.182 9.328 227.683 9.904C228.185 10.48 228.558 11.1253 228.803 11.84C229.059 12.544 229.187 13.2533 229.187 13.968V14.272C229.187 14.944 229.065 15.632 228.819 16.336C228.585 17.0293 228.217 17.6747 227.715 18.272C227.225 18.8693 226.606 19.3493 225.859 19.712C225.113 20.0747 224.233 20.256 223.219 20.256ZM223.219 19.136C223.966 19.136 224.633 19.0027 225.219 18.736C225.806 18.4587 226.302 18.0853 226.707 17.616C227.113 17.136 227.422 16.5973 227.635 16C227.849 15.4027 227.955 14.7787 227.955 14.128C227.955 13.4453 227.849 12.8053 227.635 12.208C227.422 11.6107 227.107 11.0827 226.691 10.624C226.286 10.1547 225.79 9.78667 225.203 9.52C224.617 9.25333 223.955 9.12 223.219 9.12C222.494 9.12 221.838 9.25333 221.251 9.52C220.665 9.78667 220.163 10.1547 219.747 10.624C219.342 11.0827 219.027 11.6107 218.803 12.208C218.59 12.8053 218.483 13.4453 218.483 14.128C218.483 14.7787 218.59 15.4027 218.803 16C219.017 16.5973 219.326 17.136 219.731 17.616C220.137 18.0853 220.633 18.4587 221.219 18.736C221.817 19.0027 222.483 19.136 223.219 19.136Z" fill="#F3F4F6"/>
<path d="M12.168 5.884H12.668V5.384V1.288C12.668 1.1066 12.6021 0.910511 12.4584 0.755775C12.3051 0.590657 12.0888 0.5 11.848 0.5H3.144C2.67691 0.5 2.292 0.851926 2.292 1.288V5.096C2.292 5.53207 2.67691 5.884 3.144 5.884H12.168ZM7.304 9.268H6.804V9.768V19.0465L6.804 19.0466L6.804 19.0472L6.804 19.0475V19.048L6.80398 19.0481L6.80359 19.0632C6.8031 19.078 6.80205 19.1019 6.7998 19.1338C6.7953 19.1976 6.78604 19.2921 6.76715 19.4067C6.72898 19.6384 6.65358 19.9395 6.50777 20.2344C6.36287 20.5276 6.15365 20.8047 5.84996 21.0094C5.54967 21.2119 5.12733 21.364 4.52 21.364H1.352C0.985876 21.364 0.5 21.6238 0.5 22.152V26.312C0.5 26.5695 0.64589 26.7675 0.774748 26.8803C0.915941 27.0038 1.11755 27.1 1.352 27.1H4.52V26.6C4.52 27.1 4.52027 27.1 4.52057 27.1L4.52132 27.1L4.52334 27.1L4.52946 27.1L4.5499 27.0997C4.56711 27.0994 4.59141 27.0989 4.62234 27.0979C4.68418 27.0958 4.77259 27.0919 4.8838 27.084C5.10606 27.0683 5.42034 27.0372 5.7962 26.9754C6.54551 26.852 7.55236 26.6045 8.56535 26.1043C9.58017 25.6033 10.6111 24.8436 11.3874 23.6938C12.166 22.5405 12.668 21.0248 12.668 19.048V9.768V9.268H12.168H7.304ZM33.774 21.396H33.7637L33.7534 21.3964C32.2157 21.4598 29.9046 21.4043 27.9915 20.4158C27.0454 19.9269 26.2002 19.2116 25.5881 18.1651C24.9749 17.1167 24.578 15.7059 24.578 13.8C24.578 10.8822 25.5617 8.94116 27.1398 7.74667C28.6449 6.60734 30.7624 6.09243 33.274 6.15326V11.336V11.836H33.774H38.67H39.17V11.336V1.288C39.17 0.85193 38.7851 0.5 38.318 0.5H34.158C31.0023 0.5 27.1345 0.858212 24.0448 2.7112C20.9079 4.59249 18.65 7.9667 18.65 13.8C18.65 19.4296 20.8868 22.798 24.0026 24.729C27.0773 26.6345 30.9422 27.1 34.158 27.1H38.318C38.7851 27.1 39.17 26.7481 39.17 26.312V21.896V21.396H38.67H33.774Z" stroke="#F3F4F6"/>
</svg>
