<svg width="512" height="512" viewBox="0 0 512 512" fill="none" xmlns="http://www.w3.org/2000/svg">
<path d="M96 96C96 60.7 124.7 32 160 32H448C483.3 32 512 60.7 512 96V416C512 451.3 483.3 480 448 480H80C35.8 480 0 444.2 0 400V128C0 110.3 14.3 96 32 96C49.7 96 64 110.3 64 128V400C64 408.8 71.2 416 80 416C88.8 416 96 408.8 96 400V96ZM160 120V200C160 213.3 170.7 224 184 224H296C309.3 224 320 213.3 320 200V120C320 106.7 309.3 96 296 96H184C170.7 96 160 106.7 160 120ZM368 112C368 120.8 375.2 128 384 128H432C440.8 128 448 120.8 448 112C448 103.2 440.8 96 432 96H384C375.2 96 368 103.2 368 112ZM368 208C368 216.8 375.2 224 384 224H432C440.8 224 448 216.8 448 208C448 199.2 440.8 192 432 192H384C375.2 192 368 199.2 368 208ZM160 304C160 312.8 167.2 320 176 320H432C440.8 320 448 312.8 448 304C448 295.2 440.8 288 432 288H176C167.2 288 160 295.2 160 304ZM160 400C160 408.8 167.2 416 176 416H432C440.8 416 448 408.8 448 400C448 391.2 440.8 384 432 384H176C167.2 384 160 391.2 160 400Z" fill="#D1D5DB"/>
</svg>
