<svg width="79" height="75" viewBox="0 0 79 75" fill="none" xmlns="http://www.w3.org/2000/svg">
<path d="M54.6 52.4C57.5 52.1 59.7 49.6 59.6 46.6C59.5 43.6 57 41.2 54 41.2H53.8C50.7 41.3 48.3 43.9 48.4 47C48.5 48.5 49.1 49.8 50 50.7C46.6 57.4 41.4 62.3 33.6 66.4C28.3 69.2 22.8 70.2 17.3 69.5C12.8 68.9 9.30002 66.9 7.10002 63.6C3.90002 58.7 3.60001 53.4 6.30001 48.1C8.20001 44.3 11.2 41.5 13.1 40.1C12.7 38.8 12.1 36.6 11.8 35C-2.69999 45.5 -1.19999 59.7 3.20001 66.4C6.50001 71.4 13.2 74.5 20.6 74.5C22.6 74.5 24.6 74.3 26.6 73.8C39.4 71.3 49.1 63.7 54.6 52.4Z" fill="#764ABC"/>
<path d="M72.2001 40.0012C64.6001 31.1012 53.4001 26.2012 40.6001 26.2012H39.0001C38.1001 24.4012 36.2001 23.2012 34.1001 23.2012H33.9001C30.8001 23.3012 28.4001 25.9012 28.5001 29.0012C28.6001 32.0012 31.1001 34.4012 34.1001 34.4012H34.3001C36.5001 34.3012 38.4001 32.9012 39.2001 31.0012H41.0001C48.6001 31.0012 55.8001 33.2012 62.3001 37.5012C67.3001 40.8012 70.9001 45.1012 72.9001 50.3012C74.6001 54.5012 74.5001 58.6012 72.7001 62.1012C69.9001 67.4012 65.2001 70.3012 59.0001 70.3012C55.0001 70.3012 51.2001 69.1012 49.2001 68.2012C48.1001 69.2012 46.1001 70.8012 44.7001 71.8012C49.0001 73.8012 53.4001 74.9012 57.6001 74.9012C67.2001 74.9012 74.3001 69.6012 77.0001 64.3012C79.9001 58.5012 79.7001 48.5012 72.2001 40.0012Z" fill="#764ABC"/>
<path d="M21.4 54.1008C21.5 57.1008 24 59.5008 27 59.5008H27.2C30.3 59.4008 32.7 56.8008 32.6 53.7008C32.5 50.7008 30 48.3008 27 48.3008H26.8C26.6 48.3008 26.3 48.3008 26.1 48.4008C22 41.6008 20.3 34.2008 20.9 26.2008C21.3 20.2008 23.3 15.0008 26.8 10.7008C29.7 7.00078 35.3 5.20078 39.1 5.10078C49.7 4.90078 54.2 18.1008 54.5 23.4008C55.8 23.7008 58 24.4008 59.5 24.9008C58.3 8.70078 48.3 0.300781 38.7 0.300781C29.7 0.300781 21.4 6.80078 18.1 16.4008C13.5 29.2008 16.5 41.5008 22.1 51.2008C21.6 51.9008 21.3 53.0008 21.4 54.1008Z" fill="#764ABC"/>
</svg>
