<svg width="25" height="11" viewBox="0 0 25 11" fill="none" xmlns="http://www.w3.org/2000/svg">
<path d="M4.032 10.228C3.24 10.228 2.572 10.104 2.028 9.856C1.484 9.6 1.072 9.256 0.792 8.824C0.512 8.384 0.372 7.88 0.372 7.312H2.28C2.28 7.536 2.34 7.744 2.46 7.936C2.588 8.128 2.78 8.284 3.036 8.404C3.292 8.516 3.624 8.572 4.032 8.572C4.4 8.572 4.708 8.524 4.956 8.428C5.204 8.332 5.392 8.2 5.52 8.032C5.648 7.856 5.712 7.656 5.712 7.432C5.712 7.152 5.592 6.932 5.352 6.772C5.112 6.604 4.724 6.496 4.188 6.448L3.528 6.388C2.656 6.316 1.96 6.044 1.44 5.572C0.92 5.1 0.66 4.476 0.66 3.7C0.66 3.14 0.792 2.656 1.056 2.248C1.328 1.84 1.704 1.528 2.184 1.312C2.664 1.088 3.232 0.976 3.888 0.976C4.576 0.976 5.164 1.096 5.652 1.336C6.148 1.568 6.528 1.9 6.792 2.332C7.056 2.756 7.188 3.256 7.188 3.832H5.268C5.268 3.616 5.216 3.42 5.112 3.244C5.008 3.06 4.852 2.912 4.644 2.8C4.444 2.688 4.192 2.632 3.888 2.632C3.6 2.632 3.356 2.68 3.156 2.776C2.964 2.872 2.82 3.004 2.724 3.172C2.628 3.332 2.58 3.508 2.58 3.7C2.58 3.948 2.668 4.164 2.844 4.348C3.02 4.532 3.308 4.64 3.708 4.672L4.38 4.732C5.02 4.788 5.584 4.928 6.072 5.152C6.56 5.368 6.94 5.668 7.212 6.052C7.492 6.428 7.632 6.888 7.632 7.432C7.632 7.992 7.484 8.484 7.188 8.908C6.9 9.324 6.488 9.648 5.952 9.88C5.416 10.112 4.776 10.228 4.032 10.228ZM8.98791 10V1.24H10.9079V10H8.98791ZM10.6679 10V8.368H14.4959V10H10.6679ZM10.6679 6.364V4.732H14.2199V6.364H10.6679ZM10.6679 2.872V1.24H14.4119V2.872H10.6679ZM20.2192 10.228C19.4272 10.228 18.7352 10.092 18.1432 9.82C17.5592 9.54 17.0752 9.176 16.6912 8.728C16.3072 8.272 16.0192 7.78 15.8272 7.252C15.6432 6.724 15.5512 6.216 15.5512 5.728V5.464C15.5512 4.92 15.6472 4.384 15.8392 3.856C16.0392 3.32 16.3352 2.836 16.7272 2.404C17.1192 1.972 17.6072 1.628 18.1912 1.372C18.7752 1.108 19.4512 0.976 20.2192 0.976C20.9872 0.976 21.6632 1.108 22.2472 1.372C22.8312 1.628 23.3192 1.972 23.7112 2.404C24.1032 2.836 24.3992 3.32 24.5992 3.856C24.7992 4.384 24.8992 4.92 24.8992 5.464V5.728C24.8992 6.216 24.8032 6.724 24.6112 7.252C24.4192 7.78 24.1312 8.272 23.7472 8.728C23.3632 9.176 22.8752 9.54 22.2832 9.82C21.6992 10.092 21.0112 10.228 20.2192 10.228ZM20.2192 8.392C20.6352 8.392 21.0072 8.32 21.3352 8.176C21.6712 8.032 21.9552 7.832 22.1872 7.576C22.4272 7.32 22.6072 7.024 22.7272 6.688C22.8472 6.352 22.9072 5.992 22.9072 5.608C22.9072 5.2 22.8432 4.828 22.7152 4.492C22.5952 4.148 22.4152 3.852 22.1752 3.604C21.9432 3.348 21.6632 3.152 21.3352 3.016C21.0072 2.88 20.6352 2.812 20.2192 2.812C19.8032 2.812 19.4312 2.88 19.1032 3.016C18.7752 3.152 18.4912 3.348 18.2512 3.604C18.0192 3.852 17.8432 4.148 17.7232 4.492C17.6032 4.828 17.5432 5.2 17.5432 5.608C17.5432 5.992 17.6032 6.352 17.7232 6.688C17.8432 7.024 18.0192 7.32 18.2512 7.576C18.4912 7.832 18.7752 8.032 19.1032 8.176C19.4312 8.32 19.8032 8.392 20.2192 8.392Z" fill="#D1D5DB"/>
</svg>
