<svg width="36" height="11" viewBox="0 0 36 11" fill="none" xmlns="http://www.w3.org/2000/svg">
<path d="M4.656 10.228C3.832 10.228 3.132 10.076 2.556 9.772C1.988 9.46 1.556 9.02 1.26 8.452C0.964 7.884 0.816 7.212 0.816 6.436V1.24H2.784V6.508C2.784 6.892 2.856 7.228 3 7.516C3.152 7.796 3.364 8.012 3.636 8.164C3.916 8.316 4.256 8.392 4.656 8.392C5.064 8.392 5.404 8.316 5.676 8.164C5.956 8.012 6.168 7.796 6.312 7.516C6.456 7.236 6.528 6.9 6.528 6.508V1.24H8.496V6.436C8.496 7.212 8.348 7.884 8.052 8.452C7.756 9.02 7.324 9.46 6.756 9.772C6.188 10.076 5.488 10.228 4.656 10.228ZM9.31894 10L12.3069 5.332L12.3309 5.536L9.57094 1.24H11.7309L13.4349 3.976H13.7109L15.3909 1.24H17.4909L14.7189 5.56L14.6829 5.368L17.7669 10H15.5949L13.6029 6.904H13.3149L11.4189 10H9.31894ZM18.0871 10.72L20.5711 0.64H22.5391L20.0551 10.72H18.0871ZM27.4138 10.228C26.5898 10.228 25.8898 10.076 25.3138 9.772C24.7458 9.46 24.3138 9.02 24.0178 8.452C23.7218 7.884 23.5738 7.212 23.5738 6.436V1.24H25.5418V6.508C25.5418 6.892 25.6138 7.228 25.7578 7.516C25.9098 7.796 26.1218 8.012 26.3938 8.164C26.6738 8.316 27.0138 8.392 27.4138 8.392C27.8218 8.392 28.1618 8.316 28.4338 8.164C28.7138 8.012 28.9258 7.796 29.0698 7.516C29.2138 7.236 29.2858 6.9 29.2858 6.508V1.24H31.2538V6.436C31.2538 7.212 31.1058 7.884 30.8098 8.452C30.5138 9.02 30.0818 9.46 29.5138 9.772C28.9458 10.076 28.2458 10.228 27.4138 10.228ZM33.0822 10V1.24H35.0502V10H33.0822Z" fill="#D1D5DB"/>
</svg>
