<svg width="801" height="160" viewBox="0 0 801 160" fill="none" xmlns="http://www.w3.org/2000/svg">
<mask id="mask0_502_890" style="mask-type:luminance" maskUnits="userSpaceOnUse" x="2" y="16" width="797" height="128">
<path d="M798.086 16.0493H2.25763V143.95H798.086V16.0493Z" fill="white"/>
</mask>
<g mask="url(#mask0_502_890)">
<path d="M505.95 73.9789C505.95 73.9789 499.077 75.6217 493.262 77.0082L484.423 79.0238C484.4 79.0238 484.365 79.0238 484.342 79.0238C484.342 76.6353 484.516 74.1187 485.086 71.8001C485.819 68.829 487.424 65.357 490.215 63.8307C493.25 62.1762 496.949 61.9781 500.159 63.2598C503.485 64.5764 505.008 67.7921 505.66 71.1243C505.846 72.0564 505.962 72.9885 506.055 73.9323L505.95 73.9789ZM529.001 79.0238C529.001 55.9195 514.475 45.9927 495.914 45.9927C474.933 45.9927 461.791 60.545 461.791 79.1404C461.791 99.3552 472.979 112.521 497.065 112.521C510.091 112.521 517.464 110.214 526.233 105.822L522.895 90.6867C516.208 93.6927 509.986 95.5336 501.682 95.5336C492.576 95.5336 487.389 92.0732 485.423 85.6068H528.42C528.768 83.8707 529.001 81.9017 529.001 79.0238Z" fill="#9CA3AF"/>
<path d="M312.998 73.9789C312.998 73.9789 306.124 75.6217 300.309 77.0082L291.471 79.0238C291.447 79.0238 291.412 79.0238 291.389 79.0238C291.389 76.6353 291.564 74.1187 292.133 71.8001C292.866 68.829 294.471 65.357 297.262 63.8307C300.298 62.1762 303.996 61.9781 307.206 63.2598C310.532 64.5764 312.056 67.7921 312.707 71.1243C312.893 72.0564 313.009 72.9885 313.102 73.9323L312.998 73.9789ZM336.048 79.0238C336.048 55.9195 321.522 45.9927 302.961 45.9927C281.981 45.9927 268.839 60.545 268.839 79.1404C268.839 99.3552 280.027 112.521 304.112 112.521C317.138 112.521 324.511 110.214 333.28 105.822L329.943 90.6867C323.255 93.6927 317.033 95.5336 308.729 95.5336C299.623 95.5336 294.436 92.0732 292.471 85.6068H335.467C335.816 83.8707 336.048 81.9017 336.048 79.0238Z" fill="#9CA3AF"/>
<path d="M259.814 29.0171H238.519V110.203H259.814V29.0171Z" fill="#9CA3AF"/>
<path d="M533.49 48.067H555.854L560.564 62.4213C563.507 55.3373 570.136 46.2261 581.894 46.2261C598.036 46.2261 606.793 54.4285 606.793 75.5638V110.214H584.429C584.429 102.991 584.441 95.7786 584.452 88.5549C584.452 85.246 584.394 81.937 584.441 78.6281C584.475 75.5755 584.696 72.418 583.068 69.68C581.963 67.8274 580.161 66.4642 578.219 65.5321C574.276 63.6446 569.996 63.6912 566.123 65.7186C565.17 66.2196 560.564 68.7129 560.564 69.8664V110.214H538.2V64.8331L533.49 48.067Z" fill="#9CA3AF"/>
<path d="M623.704 64.3555H613.446V48.0671H623.704V37.884L646.068 32.606V48.0671H668.549V64.3555H646.068V82.6013C646.068 89.7667 649.523 93.1106 654.71 93.1106C660.013 93.1106 663.013 92.4116 667.502 90.9202L670.154 107.779C664.048 110.436 656.442 111.706 648.708 111.706C632.45 111.706 623.692 103.969 623.692 88.9512V64.3555H623.704Z" fill="#9CA3AF"/>
<path d="M710.394 94.031C718.581 94.031 723.419 88.1355 723.419 78.6748C723.419 69.214 718.814 63.7729 710.743 63.7729C702.555 63.7729 697.834 69.2023 697.834 79.0126C697.834 88.2637 702.439 94.031 710.394 94.031ZM710.627 45.6436C731.607 45.6436 746.935 58.8095 746.935 79.2457C746.935 99.7984 731.607 112.16 710.394 112.16C689.297 112.16 674.306 99.4605 674.306 79.2457C674.306 58.8095 689.181 45.6436 710.627 45.6436Z" fill="#9CA3AF"/>
<path d="M441.754 47.8805C437.8 46.2494 433.322 45.6435 429.042 46.261C426.867 46.5756 424.739 47.2048 422.762 48.1835C417.342 50.8632 413.121 56.9801 410.853 62.4329C409.364 56.1529 405.026 50.5137 398.688 47.8922C394.734 46.261 390.256 45.6552 385.976 46.2727C383.802 46.5873 381.673 47.2164 379.696 48.1951C374.288 50.8632 370.078 56.9568 367.799 62.3979V62.0018L363.24 48.0903H340.875L345.586 64.8563V110.226H367.799V69.6683C367.88 69.3653 368.869 68.8061 369.043 68.6779C371.648 66.8254 374.707 64.9146 377.963 64.6816C381.29 64.4369 384.569 66.1263 386.546 68.7711C386.756 69.0624 386.953 69.3537 387.139 69.6566C388.768 72.3947 388.547 75.5521 388.512 78.6047C388.477 81.9137 388.523 85.2226 388.523 88.5316C388.512 95.7553 388.5 102.968 388.5 110.191H410.865V75.5521C410.865 75.3774 410.865 75.2026 410.865 75.0395V69.6916C410.911 69.4003 411.935 68.8177 412.121 68.6896C414.726 66.837 417.784 64.9262 421.041 64.6932C424.367 64.4485 427.647 66.138 429.624 68.7828C429.833 69.0741 430.031 69.3653 430.217 69.6683C431.845 72.4063 431.624 75.5638 431.589 78.6164C431.554 81.9253 431.601 85.2343 431.601 88.5432C431.589 95.7669 431.578 102.979 431.578 110.203H453.942V75.5521C453.942 65.3923 452.488 52.308 441.754 47.8805Z" fill="#9CA3AF"/>
<path d="M799.827 46.2261C788.069 46.2261 781.452 55.349 778.498 62.4213L773.787 48.067H751.423L756.133 64.8331V110.203H778.498V68.2818C781.684 67.7226 798.978 70.915 802.258 72.1151V46.3077C801.467 46.2611 800.664 46.2261 799.827 46.2261Z" fill="#9CA3AF"/>
<path d="M206.444 73.9789C206.444 73.9789 199.571 75.6217 193.756 77.0082L184.917 79.0238C184.894 79.0238 184.859 79.0238 184.836 79.0238C184.836 76.6353 185.01 74.1187 185.58 71.8001C186.313 68.829 187.918 65.357 190.709 63.8307C193.744 62.1762 197.443 61.9781 200.653 63.2598C203.979 64.5764 205.502 67.7921 206.154 71.1243C206.34 72.0564 206.456 72.9885 206.549 73.9323L206.444 73.9789ZM229.495 79.0238C229.495 55.9195 214.969 45.9927 196.408 45.9927C175.427 45.9927 162.285 60.545 162.285 79.1404C162.285 99.3552 173.473 112.521 197.559 112.521C210.585 112.521 217.958 110.214 226.727 105.822L223.389 90.6867C216.702 93.6927 210.48 95.5336 202.176 95.5336C193.07 95.5336 187.883 92.0732 185.917 85.6068H228.913C229.262 83.8707 229.495 81.9017 229.495 79.0238Z" fill="#9CA3AF"/>
<path d="M66.141 16.0493C30.8557 16.0493 2.25763 44.6996 2.25763 80.0493C2.25763 115.388 30.8557 144.05 66.141 144.05C101.426 144.05 130.024 115.399 130.024 80.0493C130.013 44.6996 101.415 16.0493 66.141 16.0493ZM50.1731 106.707H39.5316V53.3797H50.1731V106.707ZM92.7503 106.707H60.8145V96.0464H92.7503V106.707ZM92.7503 85.3739H60.8145V74.7131H92.7503V85.3739ZM92.7503 64.0406H60.8145V53.3797H92.7503V64.0406Z" fill="#9CA3AF"/>
</g>
</svg>
