<svg width="793" height="333" viewBox="0 0 793 333" fill="none" xmlns="http://www.w3.org/2000/svg">
<g clip-path="url(#clip0_502_705)">
<path d="M473.884 115.232C456.558 115.232 443.645 123.746 443.645 144.218C443.645 159.641 452.144 170.358 472.95 170.358C490.588 170.358 502.57 159.981 502.57 143.581C502.57 125.002 491.848 115.232 473.884 115.232ZM439.231 259.834C435.129 264.865 431.041 270.222 431.041 276.527C431.041 289.124 447.096 292.902 469.159 292.902C487.449 292.902 512.343 291.628 512.343 274.649C512.343 264.539 500.365 263.917 485.229 262.969L439.231 259.834ZM532.512 116.181C538.172 123.434 544.172 133.515 544.172 148.008C544.172 182.958 516.757 203.445 477.053 203.445C466.954 203.445 457.818 202.185 452.144 200.603L441.752 217.301L472.624 219.183C527.153 222.657 559.289 224.243 559.289 266.121C559.289 302.346 527.464 322.822 472.624 322.822C415.594 322.822 393.842 308.329 393.842 283.441C393.842 269.263 400.15 261.723 411.183 251.306C400.773 246.923 397.322 239.047 397.322 230.534C397.322 223.606 400.773 217.301 406.458 211.307C412.128 205.327 418.425 199.344 425.993 192.416C410.56 184.851 398.89 168.465 398.89 145.152C398.89 108.927 422.836 84.0535 471.056 84.0535C484.606 84.0535 492.797 85.2986 500.053 87.2097H561.509V113.973L532.516 116.181" fill="#9CA3AF"/>
<mask id="mask0_502_705" style="mask-type:luminance" maskUnits="userSpaceOnUse" x="575" y="2" width="92" height="248">
<path d="M575.74 2.85938H666.265V249.75H575.74V2.85938Z" fill="white"/>
</mask>
<g mask="url(#mask0_502_705)">
<path d="M616.943 58.93C598.979 58.93 588.583 48.5419 588.583 30.5671C588.583 12.6249 598.979 2.85571 616.943 2.85571C635.229 2.85571 645.629 12.6285 645.629 30.5671C645.629 48.5382 635.233 58.93 616.943 58.93ZM576.29 248.251V223.363L592.36 221.17C596.774 220.536 597.408 219.588 597.408 214.85V122.243C597.408 118.794 596.463 116.575 593.309 115.641L576.29 109.647L579.755 84.1403H644.991V214.857C644.991 219.921 645.303 220.54 650.043 221.177L666.109 223.37V248.255L576.29 248.251Z" fill="#9CA3AF"/>
</g>
<mask id="mask1_502_705" style="mask-type:luminance" maskUnits="userSpaceOnUse" x="662" y="32" width="129" height="218">
<path d="M662.644 32.5762H790.722V249.75H662.644V32.5762Z" fill="white"/>
</mask>
<g mask="url(#mask1_502_705)">
<path d="M790.722 236.032C777.173 242.638 757.326 248.632 739.351 248.632C701.852 248.632 687.68 233.52 687.68 197.903V115.388C687.68 113.492 687.68 112.236 685.145 112.236H663.082V84.1984C690.833 81.0457 701.852 67.1756 705.317 32.844H735.263V77.5818C735.263 79.7861 735.263 80.7308 737.78 80.7308H782.209V112.236H735.263V187.512C735.263 206.102 739.674 213.341 756.692 213.341C765.517 213.341 774.652 211.137 782.209 208.31L790.722 236.032Z" fill="#9CA3AF"/>
</g>
<mask id="mask2_502_705" style="mask-type:luminance" maskUnits="userSpaceOnUse" x="0" y="2" width="334" height="331">
<path d="M0 2.85938H333.132V333H0V2.85938Z" fill="white"/>
</mask>
<g mask="url(#mask2_502_705)">
<path d="M323.797 153.364L179.707 9.34553C177.734 7.3725 175.391 5.80736 172.813 4.73952C170.234 3.67169 167.471 3.12207 164.68 3.12207C161.889 3.12207 159.125 3.67169 156.547 4.73952C153.968 5.80736 151.626 7.3725 149.652 9.34553L119.732 39.2504L157.68 77.1979C162.141 75.6776 166.94 75.4374 171.53 76.5046C176.121 77.5717 180.321 79.9034 183.654 83.2353C187.002 86.5884 189.34 90.8151 190.401 95.4329C191.461 100.051 191.201 104.873 189.65 109.351L226.229 145.926C230.707 144.37 235.533 144.107 240.154 145.168C244.774 146.229 249.002 148.57 252.351 151.924C254.702 154.269 256.567 157.055 257.84 160.121C259.112 163.188 259.767 166.475 259.767 169.795C259.767 173.115 259.112 176.403 257.84 179.469C256.567 182.536 254.702 185.322 252.351 187.667C250.004 190.017 247.216 191.882 244.147 193.154C241.078 194.426 237.788 195.081 234.465 195.081C231.143 195.081 227.853 194.426 224.784 193.154C221.715 191.882 218.927 190.017 216.579 187.667C213.053 184.138 210.65 179.646 209.671 174.755C208.692 169.864 209.182 164.793 211.079 160.18L176.962 126.077V215.816C179.439 217.033 181.699 218.647 183.654 220.594C188.396 225.337 191.06 231.769 191.06 238.475C191.06 245.181 188.396 251.612 183.654 256.356C173.768 266.222 157.753 266.222 147.896 256.356C145.545 254.009 143.679 251.222 142.406 248.154C141.133 245.085 140.478 241.796 140.478 238.475C140.478 235.153 141.133 231.864 142.406 228.796C143.679 225.728 145.545 222.941 147.896 220.594C150.256 218.221 153.07 216.346 156.17 215.082V124.506C153.07 123.241 150.256 121.367 147.896 118.993C144.346 115.446 141.931 110.924 140.959 106.002C139.986 101.08 140.501 95.9798 142.436 91.3504L105.024 53.9386L6.22445 152.698C4.25009 154.671 2.68387 157.013 1.61529 159.591C0.546708 162.168 -0.0032959 164.931 -0.0032959 167.721C-0.0032959 170.512 0.546708 173.275 1.61529 175.852C2.68387 178.43 4.25009 180.772 6.22445 182.744L150.315 326.778C152.288 328.751 154.631 330.316 157.209 331.384C159.788 332.452 162.551 333.001 165.342 333.001C168.133 333.001 170.897 332.452 173.475 331.384C176.054 330.316 178.396 328.751 180.369 326.778L323.797 183.425C327.785 179.438 330.025 174.032 330.025 168.395C330.025 162.757 327.785 157.351 323.797 153.364Z" fill="#9CA3AF"/>
</g>
</g>
<defs>
<clipPath id="clip0_502_705">
<rect width="793" height="333" fill="white"/>
</clipPath>
</defs>
</svg>
