<svg width="350" height="175" viewBox="0 0 350 175" fill="none" xmlns="http://www.w3.org/2000/svg">
<path d="M140.271 105.665L147.236 123.953H133.741L140.271 105.665ZM137.658 99.54L122.421 139.586H128.08L131.997 128.707H148.972L152.889 139.586H158.547L143.311 99.54H137.652H137.658ZM219.908 139.621H225.158V99.5692H219.908V139.615V139.621ZM166.387 116.083C168.128 113.47 171.637 111.294 175.093 111.294C182.058 111.294 185.541 116.083 185.541 123.048V140.023H180.291V123.918C180.291 118.259 177.243 116.08 173.326 116.08C168.971 116.08 165.926 120.435 165.926 124.352V139.589H160.676V111.767H165.926L166.364 116.121L166.387 116.083ZM189.896 131.349C189.896 125.224 195.554 121.771 202.087 121.771C206.004 121.771 208.621 122.646 209.487 123.512V122.637C209.487 118.283 206.004 116.104 202.522 116.104C199.474 116.104 196.863 117.41 195.988 120.021L191.199 117.845C192.074 115.232 195.554 111.312 202.516 111.312C209.049 111.312 214.708 115.229 214.708 123.066V139.609H209.918V135.692H209.481C208.174 137.868 205.126 140.481 200.34 140.481C194.682 140.481 189.893 136.999 189.893 131.34M209.481 127.858C209.481 127.858 207.305 126.117 202.948 126.117C197.698 126.117 195.548 129.165 195.548 131.367C195.548 134.415 198.596 135.721 201.206 135.721C205.123 135.721 209.478 132.239 209.478 127.884" fill="#9CA3AF"/>
<path fill-rule="evenodd" clip-rule="evenodd" d="M232.561 151.813L238.686 137.448L227.807 112.198H233.057L241.328 131.352L249.6 112.198H254.85L237.875 151.813H232.625H232.561ZM309.182 121.333C307.875 117.851 304.827 115.675 301.782 115.675C297.427 115.675 293.51 119.592 293.51 125.253C293.51 130.915 297.427 134.832 301.782 134.832C304.83 134.832 307.907 132.656 309.182 129.582L313.536 132.195C311.36 136.984 307.003 140.032 301.782 140.032C294.382 140.032 288.287 133.499 288.287 125.23C288.287 116.524 294.412 110.428 301.782 110.428C307.032 110.428 311.36 113.476 313.536 118.265L309.182 121.313V121.333Z" fill="#9CA3AF"/>
<path d="M327.898 140.49C334.863 140.49 338.345 136.573 338.345 131.784C338.345 121.336 323.108 125.25 323.108 119.16C323.108 116.985 324.85 115.678 327.898 115.678C330.946 115.678 334.023 116.985 335.297 119.16L338.345 116.113C336.604 113.937 331.812 110.863 327.466 110.863C320.933 110.863 317.453 114.78 317.453 119.569C317.453 129.582 333.124 126.102 333.124 131.323C333.124 133.936 331.383 135.678 327.874 135.678C324.366 135.678 322.624 133.502 320.909 131.323L317.042 134.4C319.655 137.013 323.575 140.525 327.921 140.525L327.898 140.49ZM278.271 139.621H283.521V111.761H278.271V139.621Z" fill="#9CA3AF"/>
<path fill-rule="evenodd" clip-rule="evenodd" d="M280.447 98.2917C282.622 98.2917 283.929 100.033 283.929 101.774C283.929 103.95 282.188 105.257 280.447 105.257C278.705 105.257 276.964 103.515 276.964 101.774C276.964 100.033 278.705 98.2917 280.447 98.2917ZM273.047 135.295L273.922 139.213H268.672C263.883 139.213 261.707 135.73 261.707 130.506V116.958H256.457V111.708H261.707V103.489H266.957V111.761H273.082V117.011H266.957V131.375C266.957 135.293 270.005 135.293 273.082 135.293L273.047 135.295Z" fill="#9CA3AF"/>
<path d="M148.89 55.2942V61.8275H164.127C163.689 65.31 162.386 67.9525 160.644 69.6646C158.469 71.8405 154.986 74.4538 148.89 74.4538C139.749 74.4538 132.347 67.0542 132.347 57.4788C132.347 48.338 139.746 40.5038 148.89 40.5038C154.14 40.5038 157.596 42.6796 160.207 44.8584L164.561 40.5038C160.644 37.0213 155.855 33.9705 148.89 33.9705C136.267 33.9705 125.382 44.418 125.382 57.0121C125.382 69.6063 136.261 80.0538 148.89 80.0538C155.855 80.0538 161.082 77.878 164.996 73.5205C169.351 69.1659 170.654 63.5075 170.654 58.7184C170.654 57.4117 170.654 55.6705 170.217 54.8013H148.887L148.89 55.2942ZM187.629 50.0442C179.358 50.0442 172.827 56.1692 172.827 64.8463C172.827 73.5234 179.361 79.6484 187.629 79.6484C189.578 79.6659 191.511 79.295 193.315 78.5573C195.118 77.8196 196.757 76.73 198.135 75.352C199.513 73.974 200.603 72.3352 201.34 70.5315C202.078 68.7277 202.449 66.795 202.431 64.8463C202.431 56.14 195.898 50.0442 187.629 50.0442ZM187.629 73.9609C183.275 73.9609 179.358 70.0438 179.358 64.82C179.358 59.5963 183.275 55.7084 187.629 55.7084C191.984 55.7084 195.904 59.2084 195.904 64.8375C195.904 70.4667 191.987 73.9784 187.632 73.9784L187.629 73.9609ZM259 53.0892C257.259 51.348 254.646 49.6067 250.728 49.6067C243.329 49.6067 236.799 56.14 236.799 64.4088C236.799 72.6775 243.332 79.2109 250.728 79.2109C254.211 79.2109 257.262 77.4696 258.566 75.7284H259.003V77.9042C259.003 83.5625 255.955 86.6105 251.166 86.6105C247.249 86.6105 244.633 83.5625 243.766 81.3605L238.108 83.5363C239.849 87.4534 244.233 92.2425 251.169 92.2425C259.006 92.2425 265.534 87.888 265.534 76.5713V49.5834H259.409V53.0659L259 53.0892ZM251.601 73.9842C247.246 73.9842 243.763 70.0671 243.763 64.8434C243.763 59.6196 247.246 55.7025 251.601 55.7025C255.955 55.7025 259.438 59.6196 259.438 64.8434C259.438 70.0671 255.955 73.9842 251.601 73.9842ZM219.818 50.0675C211.546 50.0675 205.016 56.1925 205.016 64.8696C205.016 73.5467 211.549 79.6717 219.818 79.6717C221.766 79.6892 223.699 79.3183 225.503 78.5806C227.307 77.843 228.945 76.7533 230.323 75.3753C231.701 73.9973 232.791 72.3586 233.529 70.5548C234.266 68.751 234.637 66.8183 234.62 64.8696C235.057 56.1634 228.086 50.0675 219.818 50.0675ZM219.818 73.9842C215.463 73.9842 211.546 70.0671 211.546 64.8434C211.546 59.6196 215.463 55.7025 219.818 55.7025C224.172 55.7025 228.089 59.185 228.089 64.8434C228.089 70.5017 224.172 73.9842 219.818 73.9842ZM270.375 34.3992H276.909V79.6717H270.375V34.3992ZM294.753 74.0134C291.27 74.0134 289.094 72.2721 287.353 69.6588L307.379 61.3871L306.504 59.6459C305.197 56.1634 301.254 50.0675 293.881 50.0675C286.044 50.0675 279.951 56.1925 279.951 64.8696C279.933 66.8183 280.304 68.751 281.042 70.5548C281.779 72.3586 282.869 73.9973 284.247 75.3753C285.625 76.7533 287.264 77.843 289.068 78.5806C290.871 79.3183 292.804 79.6892 294.753 79.6717C301.718 79.6717 305.632 75.3171 307.376 73.1384L302.126 69.6559C300.385 72.2692 298.209 74.0105 294.726 74.0105L294.753 74.0134ZM294.315 55.7259C296.929 55.7259 299.104 57.0325 299.974 59.2084L286.478 64.8667C286.478 58.3334 290.833 55.7259 294.315 55.7259Z" fill="#9CA3AF"/>
<path d="M84.4336 48.6269V125.094C84.4336 133.65 90.3424 138.418 96.5989 138.418C102.392 138.418 108.764 134.363 108.764 125.094V49.2062C108.764 41.3625 102.971 36.4617 96.5989 36.4617C90.2266 36.4617 84.4336 41.8665 84.4336 48.6269Z" fill="#9CA3AF"/>
<path d="M52.5718 87.4399V125.094C52.5718 133.65 58.4806 138.418 64.7371 138.418C70.5301 138.418 76.9024 134.363 76.9024 125.094V88.0192C76.9024 80.1755 71.1094 75.2747 64.7371 75.2747C58.3648 75.2747 52.5718 80.6795 52.5718 87.4399Z" fill="#9CA3AF"/>
<path d="M32.8757 138.418C39.5944 138.418 45.041 132.972 45.041 126.253C45.041 119.534 39.5944 114.088 32.8757 114.088C26.157 114.088 20.7104 119.534 20.7104 126.253C20.7104 132.972 26.157 138.418 32.8757 138.418Z" fill="#9CA3AF"/>
</svg>
