<svg width="1166" height="234" viewBox="0 0 1166 234" fill="none" xmlns="http://www.w3.org/2000/svg">
<g clip-path="url(#clip0_502_879)">
<path d="M350.908 68.6299H372.881V165.975H350.908V124.677H314.008V165.975H292.035V68.6299H314.008V105.852H350.908V68.6299Z" fill="#9CA3AF"/>
<path fill-rule="evenodd" clip-rule="evenodd" d="M494.954 138.672C497.422 132.333 498.662 124.976 498.662 116.615C498.662 108.249 497.403 100.895 494.881 94.5533C492.362 88.2081 488.906 82.8741 484.521 78.5514C480.134 74.2286 475.001 70.988 469.122 68.8257C463.239 66.6613 456.986 65.5791 450.361 65.5791C443.92 65.5791 437.781 66.6613 431.951 68.8257C426.115 70.988 420.98 74.2286 416.55 78.5514C412.116 82.8741 408.59 88.2081 405.978 94.5533C403.365 100.895 402.057 108.249 402.057 116.615C402.057 124.976 403.32 132.333 405.839 138.672C408.361 145.017 411.81 150.328 416.199 154.601C420.585 158.88 425.72 162.097 431.601 164.258C437.481 166.422 443.732 167.502 450.361 167.502C457.172 167.502 463.544 166.422 469.47 164.258C475.396 162.097 480.508 158.88 484.801 154.601C489.092 150.328 492.477 145.017 494.954 138.672ZM426.348 129.581C425.181 125.728 424.6 121.405 424.6 116.615C424.6 111.916 425.181 107.617 426.348 103.714C427.515 99.8145 429.196 96.4793 431.391 93.7078C433.58 90.9344 436.266 88.772 439.441 87.2207C442.613 85.6714 446.252 84.8967 450.361 84.8967C454.373 84.8967 457.99 85.6477 461.213 87.1517C464.429 88.6518 467.139 90.7925 469.329 93.5639C471.522 96.3393 473.206 99.6726 474.372 103.572C475.539 107.473 476.123 111.819 476.123 116.615C476.123 121.405 475.539 125.728 474.372 129.581C473.206 133.437 471.522 136.748 469.329 139.52C467.139 142.295 464.429 144.43 461.213 145.932C457.99 147.44 454.373 148.193 450.361 148.193C446.252 148.193 442.613 147.44 439.441 145.932C436.266 144.43 433.58 142.295 431.391 139.52C429.196 136.748 427.515 133.437 426.348 129.581Z" fill="#9CA3AF"/>
<path d="M553.582 148.754C556.662 148.754 559.205 148.498 561.211 147.978C563.218 147.463 564.829 146.759 566.041 145.861C567.253 144.972 568.095 143.915 568.563 142.693C569.03 141.473 569.263 140.109 569.263 138.605C569.263 135.411 567.768 132.752 564.782 130.641C561.795 128.524 556.662 126.247 549.383 123.799C546.208 122.676 543.034 121.381 539.861 119.926C536.687 118.471 533.841 116.638 531.321 114.428C528.804 112.221 526.748 109.542 525.162 106.39C523.575 103.244 522.782 99.4161 522.782 94.9041C522.782 90.3921 523.622 86.3275 525.301 82.7105C526.983 79.0914 529.362 76.0164 532.443 73.4756C535.522 70.9367 539.254 68.9912 543.641 67.6251C548.028 66.265 552.973 65.5791 558.482 65.5791C565.015 65.5791 570.663 66.2887 575.424 67.6961C580.181 69.1055 584.103 70.6588 587.182 72.35L580.884 89.6884C578.175 88.279 575.164 87.0332 571.853 85.9511C568.539 84.8728 564.549 84.3288 559.884 84.3288C554.655 84.3288 550.898 85.0621 548.612 86.5168C546.325 87.9735 545.18 90.2068 545.18 93.2109C545.18 94.9987 545.603 96.5047 546.443 97.7228C547.28 98.945 548.473 100.049 550.011 101.036C551.552 102.022 553.326 102.917 555.334 103.713C557.337 104.513 559.555 105.333 561.985 106.179C567.022 108.062 571.409 109.916 575.144 111.75C578.876 113.583 581.981 115.721 584.455 118.164C586.926 120.606 588.77 123.474 589.986 126.764C591.196 130.056 591.804 134.047 591.804 138.743C591.804 147.859 588.629 154.932 582.282 159.958C575.935 164.989 566.368 167.504 553.582 167.504C549.289 167.504 545.415 167.244 541.961 166.727C538.508 166.207 535.452 165.574 532.791 164.823C530.133 164.072 527.844 163.274 525.93 162.428C524.017 161.581 522.408 160.784 521.1 160.029L527.263 142.551C530.152 144.152 533.723 145.583 537.974 146.848C542.218 148.119 547.423 148.754 553.582 148.754Z" fill="#9CA3AF"/>
<path d="M688.027 67.8394V86.5891H658.765V165.528H636.925V86.5891H607.661V67.8394H688.027Z" fill="#9CA3AF"/>
<path d="M712.285 165.531H734.127V67.8398H712.285V165.531Z" fill="#9CA3AF"/>
<path d="M831.893 165.529C825.64 154.346 818.874 143.306 811.592 132.401C804.309 121.499 796.562 111.209 788.352 101.529V165.529H766.79V67.8398H784.57C787.647 70.9385 791.055 74.7448 794.791 79.2568C798.524 83.7688 802.324 88.5863 806.2 93.7074C810.073 98.8285 813.923 104.139 817.751 109.634C821.576 115.132 825.17 120.416 828.532 125.492V67.8398H850.233V165.529H831.893Z" fill="#9CA3AF"/>
<path d="M930.212 84.756C920.044 84.756 912.691 87.5984 908.162 93.2833C903.636 98.9701 901.375 106.744 901.375 116.616C901.375 121.404 901.933 125.754 903.053 129.653C904.175 133.55 905.854 136.909 908.092 139.73C910.335 142.55 913.133 144.736 916.494 146.288C919.854 147.837 923.771 148.612 928.252 148.612C930.678 148.612 932.757 148.564 934.486 148.472C936.21 148.379 937.728 148.192 939.033 147.908V113.937H960.875V162.288C958.26 163.322 954.063 164.424 948.274 165.597C942.489 166.77 935.347 167.361 926.853 167.361C919.574 167.361 912.969 166.232 907.045 163.979C901.115 161.72 896.052 158.434 891.851 154.109C887.655 149.788 884.41 144.476 882.123 138.18C879.832 131.888 878.693 124.698 878.693 116.616C878.693 108.437 879.954 101.201 882.475 94.9036C884.993 88.6096 888.442 83.2717 892.834 78.9036C897.221 74.5336 902.375 71.222 908.303 68.967C914.229 66.71 920.553 65.5786 927.273 65.5786C931.847 65.5786 935.975 65.888 939.664 66.4971C943.35 67.1102 946.522 67.8139 949.182 68.6142C951.845 69.4105 954.039 70.2325 955.766 71.0801C957.494 71.9257 958.726 72.5861 959.476 73.0552L953.176 90.6735C950.186 89.0768 946.756 87.6931 942.886 86.5163C939.01 85.3415 934.789 84.756 930.212 84.756Z" fill="#9CA3AF"/>
<path d="M991.436 165.529V67.8398H1056.96V86.3057H1013.28V105.475H1052.06V123.521H1013.28V147.063H1060.18V165.529H991.436Z" fill="#9CA3AF"/>
<path fill-rule="evenodd" clip-rule="evenodd" d="M1148.42 74.533C1140.67 69.3154 1129.52 66.7095 1114.96 66.7095C1110.94 66.7095 1106.39 66.8968 1101.31 67.2752C1096.22 67.6478 1091.3 68.3101 1086.54 69.2444V165.528H1108.38V129.86H1119.16C1121.03 132.119 1122.91 134.632 1124.78 137.407C1126.65 140.179 1128.56 143.112 1130.47 146.215C1132.4 149.317 1134.27 152.514 1136.09 155.802C1137.92 159.092 1139.72 162.333 1141.5 165.528H1165.92C1164.24 161.958 1162.42 158.317 1160.46 154.602C1158.5 150.892 1156.47 147.322 1154.37 143.892C1152.27 140.463 1150.15 137.173 1148 134.023C1145.85 130.875 1143.8 128.08 1141.84 125.634C1147.72 123.193 1152.23 119.83 1155.35 115.557C1158.48 111.282 1160.04 105.709 1160.04 98.8513C1160.04 87.8542 1156.17 79.7487 1148.42 74.533ZM1111.95 85.5992C1113.21 85.5065 1114.63 85.4592 1116.22 85.4592C1123.22 85.4592 1128.51 86.4704 1132.11 88.4869C1135.7 90.5133 1137.5 93.9155 1137.5 98.7094C1137.5 103.693 1135.73 107.219 1132.18 109.283C1128.63 111.353 1122.75 112.381 1114.54 112.381H1108.38V85.881C1109.5 85.7904 1110.69 85.6958 1111.95 85.5992Z" fill="#9CA3AF"/>
<path fill-rule="evenodd" clip-rule="evenodd" d="M142.091 0.5V70.1157L198.333 103.009V29.1681L142.091 0.5ZM0.00158872 0.503353V109.746H182.919L127.265 79.1574L54.7668 79.1222V29.903L0.00158872 0.503353ZM142.091 203.638V154.843L69.0338 154.792C69.102 155.117 12.4565 123.714 12.4565 123.714L198.333 124.592V233.833L142.091 203.638ZM0.00194846 132.25L0 203.638L54.7672 232.304V164.364L0.00194846 132.25Z" fill="#9CA3AF"/>
</g>
<defs>
<clipPath id="clip0_502_879">
<rect width="1166" height="234" fill="white"/>
</clipPath>
</defs>
</svg>
