<svg width="1553" height="634" viewBox="0 0 1553 634" fill="none" xmlns="http://www.w3.org/2000/svg">
<mask id="mask0_502_831" style="mask-type:luminance" maskUnits="userSpaceOnUse" x="0" y="0" width="1553" height="632">
<path d="M1553 0H0V631.349H1553V0Z" fill="white"/>
</mask>
<g mask="url(#mask0_502_831)">
<path d="M356.207 628.042V468.99L359.523 465.671H392.654L395.97 468.99V628.042L392.654 631.361H359.523L356.207 628.042Z" fill="#9CA3AF"/>
<path d="M356.207 162.36V3.31679L359.523 0H392.654L395.97 3.31679V162.36L392.654 165.677H359.523L356.207 162.36Z" fill="#9CA3AF"/>
<path d="M212.184 513.382H207.5L184.076 489.945V485.259L238.774 430.568L263.578 430.58L266.906 433.883V458.691L212.184 513.382Z" fill="#9CA3AF"/>
<path d="M212.161 117.978H207.476L184.052 141.416V146.101L238.751 200.793L263.555 200.781L266.883 197.476V172.67L212.161 117.978Z" fill="#9CA3AF"/>
<path d="M3.31647 295.797H228.616L231.932 299.114V332.246L228.616 335.565H3.31647L0 332.246V299.114L3.31647 295.797Z" fill="#9CA3AF"/>
<path d="M1337.64 295.797H1549.69L1553.01 299.114V332.246L1549.69 335.565H1324.4L1321.08 332.246L1334.32 299.114L1337.64 295.797Z" fill="#9CA3AF"/>
<path d="M643.209 329.822L639.894 333.141H537.117L533.801 336.457C533.801 343.091 540.435 362.978 566.954 362.978C576.903 362.978 586.84 359.663 590.158 353.029L593.473 349.713H633.26L636.575 353.029C633.26 372.919 616.69 402.769 566.954 402.769C510.597 402.769 484.066 362.979 484.066 316.566C484.066 270.155 510.585 230.366 563.636 230.366C616.69 230.366 643.209 270.155 643.209 316.566V329.835V329.822ZM593.473 296.667C593.473 293.35 590.158 270.144 563.636 270.144C537.117 270.144 533.801 293.35 533.801 296.667L537.117 299.983H590.158L593.473 296.667Z" fill="#9CA3AF"/>
<path d="M736.037 349.713C736.037 356.344 739.352 359.663 745.986 359.663H775.821L779.139 362.979V396.135L775.821 399.453H745.986C716.148 399.453 689.629 386.185 689.629 349.713V276.766L686.311 273.449H663.11L659.791 270.133V236.976L663.11 233.659H686.311L689.629 230.343V200.503L692.944 197.187H732.731L736.046 200.503V230.343L739.365 233.659H775.833L779.151 236.976V270.133L775.833 273.449H739.365L736.046 276.766V349.713H736.037Z" fill="#9CA3AF"/>
<path d="M858.7 399.453H818.913L815.595 396.135V170.675L818.913 167.358H858.7L862.015 170.675V396.135L858.7 399.453Z" fill="#9CA3AF"/>
<path d="M948.21 207.148H908.423L905.105 203.832V170.675L908.423 167.358H948.21L951.525 170.675V203.832L948.21 207.148ZM948.21 399.453H908.423L905.105 396.135V236.988L908.423 233.671H948.21L951.525 236.988V396.135L948.21 399.453Z" fill="#9CA3AF"/>
<path d="M1104.03 170.675V203.832L1100.71 207.148H1070.87C1064.24 207.148 1060.92 210.465 1060.92 217.099V230.366L1064.24 233.683H1097.39L1100.71 237V270.156L1097.39 273.472H1064.24L1060.92 276.789V396.147L1057.61 399.462H1017.82L1014.5 396.147V276.789L1011.19 273.472H987.984L984.666 270.156V237L987.984 233.683H1011.19L1014.5 230.366V217.099C1014.5 180.626 1041.02 167.358 1070.86 167.358H1100.69L1104.01 170.675H1104.03Z" fill="#9CA3AF"/>
<path d="M1226.69 402.769C1213.42 435.925 1200.17 455.816 1153.75 455.816H1137.17L1133.85 452.497V419.341L1137.17 416.025H1153.75C1170.32 416.025 1173.63 412.707 1176.95 402.757V399.441L1123.91 270.132V236.976L1127.23 233.659H1157.06L1160.38 236.976L1200.17 349.713H1203.48L1243.27 236.976L1246.59 233.659H1276.42L1279.74 236.976V270.132L1226.7 402.757L1226.69 402.769Z" fill="#9CA3AF"/>
<path d="M410.859 399.454L407.544 396.135L407.565 300.065C407.565 283.492 401.05 270.643 381.046 270.225C370.761 269.959 358.992 270.202 346.419 270.736L344.542 272.661L344.566 396.135L341.247 399.454H301.474L298.158 396.135V235.214L301.474 231.897L390.983 231.085C435.826 231.085 453.973 261.899 453.973 296.678V396.135L450.658 399.454H410.859Z" fill="#9CA3AF"/>
</g>
</svg>
