<svg width="339" height="68" viewBox="0 0 339 68" fill="none" xmlns="http://www.w3.org/2000/svg">
<g clip-path="url(#clip0_75_786)">
<path d="M225.357 0.0423584H284.405V10.9411H260.981V68.2777H249.268V10.9411H225.357V0.0423584Z" fill="#9ca3af"/>
<path d="M128.245 0.0423584V10.9411H80.9146V28.4737H118.978V39.3724H80.9146V57.379H128.245V68.2777H69.2027V10.9411H69.1978V0.0423584H128.245Z" fill="#9ca3af"/>
<path d="M157.73 0.0709229H142.402L197.301 68.3063H212.673L185.22 34.2121L212.63 0.122982L197.301 0.146669L177.547 24.6816L157.73 0.0709229Z" fill="#9ca3af"/>
<path d="M173.458 48.8117L165.782 39.2682L142.358 68.3583H157.73L173.458 48.8117Z" fill="#9ca3af"/>
<path fill-rule="evenodd" clip-rule="evenodd" d="M69.6129 68.2777L14.6399 0.013916H0V68.2492H11.7119V14.5992L54.8997 68.2777H69.6129Z" fill="#9ca3af"/>
<path d="M287.038 67.861C286.18 67.861 285.45 67.5639 284.839 66.9696C284.228 66.3753 283.926 65.6558 283.934 64.8035C283.926 63.9746 284.228 63.263 284.839 62.6687C285.45 62.0744 286.18 61.7772 287.038 61.7772C287.863 61.7772 288.585 62.0744 289.196 62.6687C289.815 63.263 290.124 63.9746 290.133 64.8035C290.124 65.3665 289.981 65.8826 289.696 66.3439C289.402 66.8132 289.03 67.1807 288.561 67.4466C288.1 67.7203 287.593 67.861 287.038 67.861Z" fill="#9ca3af"/>
<path d="M307.027 39.1154H312.217V59.1106C312.21 60.9482 311.812 62.52 311.035 63.8416C310.25 65.1631 309.162 66.1718 307.766 66.8834C306.377 67.5871 304.75 67.947 302.901 67.947C301.21 67.947 299.695 67.6419 298.346 67.0477C296.997 66.4534 295.926 65.5619 295.14 64.3889C294.346 63.2159 293.957 61.7537 293.957 60.0021H299.156C299.163 60.7684 299.338 61.433 299.671 61.9882C300.004 62.5434 300.464 62.9656 301.052 63.2628C301.646 63.56 302.33 63.7086 303.099 63.7086C303.933 63.7086 304.647 63.5365 305.226 63.1846C305.805 62.8405 306.25 62.3245 306.559 61.6363C306.861 60.9561 307.02 60.1115 307.027 59.1106V39.1154Z" fill="#9ca3af"/>
<path d="M333.572 46.9351C333.445 45.7231 332.89 44.7769 331.922 44.1044C330.945 43.4241 329.684 43.0878 328.136 43.0878C327.049 43.0878 326.113 43.2521 325.335 43.5727C324.557 43.9011 323.954 44.3389 323.541 44.8941C323.129 45.4494 322.923 46.0828 322.906 46.7944C322.906 47.3887 323.049 47.9048 323.327 48.3349C323.605 48.7728 323.977 49.1403 324.462 49.4375C324.938 49.7424 325.469 49.9927 326.049 50.196C326.636 50.3993 327.224 50.5714 327.811 50.7121L330.517 51.3768C331.604 51.627 332.66 51.9633 333.667 52.3934C334.675 52.8156 335.588 53.3552 336.389 54.0042C337.191 54.6533 337.826 55.4352 338.294 56.3502C338.762 57.2651 339 58.3364 339 59.5719C339 61.2375 338.572 62.6998 337.706 63.9666C336.841 65.2255 335.596 66.2109 333.961 66.9225C332.334 67.6263 330.366 67.986 328.049 67.986C325.811 67.986 323.859 67.642 322.216 66.9538C320.566 66.2735 319.28 65.2725 318.351 63.9588C317.423 62.6451 316.923 61.042 316.852 59.1574H321.994C322.066 60.1427 322.383 60.9639 322.923 61.6285C323.47 62.2854 324.184 62.7702 325.057 63.0986C325.938 63.4192 326.922 63.5835 328.009 63.5835C329.144 63.5835 330.144 63.4114 331.009 63.0751C331.866 62.7389 332.54 62.2698 333.025 61.6598C333.517 61.0576 333.763 60.3461 333.771 59.5328C333.763 58.79 333.54 58.1721 333.112 57.6873C332.675 57.2025 332.072 56.7959 331.302 56.4675C330.525 56.1391 329.62 55.8419 328.588 55.5838L325.303 54.7549C322.93 54.1528 321.049 53.2379 319.676 52.0102C318.296 50.7825 317.613 49.156 317.613 47.115C317.613 45.4416 318.073 43.9715 319.003 42.7125C319.922 41.4536 321.185 40.476 322.78 39.7801C324.383 39.0763 326.192 38.7322 328.207 38.7322C330.255 38.7322 332.048 39.0763 333.596 39.7801C335.143 40.476 336.358 41.4457 337.238 42.6812C338.119 43.9167 338.579 45.3321 338.603 46.9351H333.572Z" fill="#9ca3af"/>
</g>
<defs>
<clipPath id="clip0_75_786">
<rect width="339" height="68" fill="#9ca3af"/>
</clipPath>
</defs>
</svg>
