<svg width="748" height="374" viewBox="0 0 748 374" fill="none" xmlns="http://www.w3.org/2000/svg">
<path d="M56.6909 83.2H162.937C194.121 83.4618 216.718 92.4527 230.728 110.158C244.738 127.863 249.361 152.046 244.603 182.706C242.756 196.716 238.657 210.457 232.314 223.936C226.233 237.415 217.78 249.57 206.942 260.409C193.725 274.149 179.587 282.871 164.523 286.574C149.458 290.276 133.862 292.124 117.743 292.124H70.1699L55.1052 367.447H0L56.6909 83.2ZM103.074 128.394L79.288 247.326C80.8738 247.588 82.4595 247.723 84.0453 247.723C85.8928 247.723 87.7479 247.723 89.5954 247.723C114.968 247.984 136.114 245.479 153.026 240.19C169.938 234.64 181.308 215.349 187.12 182.31C191.877 154.559 187.12 138.567 172.848 134.341C158.838 130.115 141.267 128.132 120.121 128.394C116.95 128.656 113.913 128.791 111.003 128.791C108.363 128.791 105.588 128.791 102.678 128.791L103.074 128.394Z" fill="#9CA3AF"/>
<path d="M307.376 7.47998H362.084L346.623 83.2H395.782C422.74 83.7311 442.824 89.2813 456.041 99.8505C469.52 110.42 473.484 130.511 467.934 160.109L441.372 292.124H385.871L411.243 166.056C413.883 152.839 413.091 143.459 408.864 137.909C404.638 132.359 395.52 129.583 381.51 129.583L337.505 129.187L304.997 292.124H250.288L307.376 7.47998Z" fill="#9CA3AF"/>
<path d="M526.682 83.2H632.928C664.112 83.4618 686.709 92.4527 700.719 110.158C714.729 127.863 719.352 152.046 714.594 182.706C712.747 196.716 708.648 210.457 702.305 223.936C696.223 237.415 687.771 249.57 676.933 260.409C663.715 274.149 649.578 282.871 634.513 286.574C619.449 290.276 603.853 292.124 587.734 292.124H540.161L525.096 367.447H469.991L526.682 83.2ZM573.065 128.394L549.279 247.326C550.865 247.588 552.45 247.723 554.036 247.723C555.884 247.723 557.739 247.723 559.586 247.723C584.958 247.984 606.104 245.479 623.017 240.19C639.929 234.64 651.299 215.349 657.111 182.31C661.868 154.559 657.111 138.567 642.839 134.341C628.829 130.115 611.258 128.132 590.112 128.394C586.941 128.656 583.904 128.791 580.994 128.791C578.354 128.791 575.579 128.791 572.669 128.791L573.065 128.394Z" fill="#9CA3AF"/>
</svg>
