<svg width="1120" height="587" viewBox="0 0 1120 587" fill="none" xmlns="http://www.w3.org/2000/svg">
<g clip-path="url(#clip0_502_761)">
<path d="M704.573 127.594C688.535 122.464 680.253 124.194 663.432 122.324C637.427 119.438 627.067 109.1 622.671 82.4928C620.212 67.6401 623.116 45.8932 616.837 32.4294C604.829 6.7573 576.731 -4.75641 548.502 1.81521C524.669 7.37172 504.838 31.6013 503.739 56.4719C502.484 84.8686 518.39 109.099 545.703 117.46C558.679 121.44 572.466 123.444 586.018 124.459C610.872 126.302 612.782 140.356 619.505 151.923C623.744 159.215 627.851 166.401 627.851 188.147C627.851 209.892 623.718 217.078 619.505 224.371C612.782 235.911 604.489 243.471 579.635 245.341C566.083 246.356 552.27 248.36 539.32 252.34C512.007 260.728 496.1 284.931 497.356 313.328C498.455 338.198 518.285 362.428 542.119 367.985C570.347 374.583 598.445 363.042 610.453 337.371C616.759 323.907 620.212 308.653 622.671 293.8C627.093 267.193 637.452 256.855 663.432 253.97C680.253 252.1 697.663 253.97 713.427 244.86C730.085 232.48 744.967 213.899 744.967 188.147C744.967 162.394 728.929 135.394 704.573 127.594Z" fill="#9CA3AF"/>
<path d="M437.762 248.498C404.98 248.498 378.242 221.248 378.242 187.841C378.242 154.434 404.98 127.184 437.762 127.184C470.542 127.184 497.282 154.434 497.282 187.841C497.282 221.221 470.516 248.498 437.762 248.498Z" fill="#9CA3AF"/>
<path d="M328.116 371.767C295.388 371.687 268.728 344.33 268.806 310.897C268.885 277.517 295.73 250.348 328.536 250.454C361.291 250.535 387.95 277.892 387.846 311.325C387.767 344.678 360.923 371.848 328.116 371.767Z" fill="#9CA3AF"/>
<path d="M770.376 371.766C737.544 371.952 710.595 344.891 710.411 311.566C710.228 278.107 736.782 250.644 769.483 250.455C802.314 250.268 829.263 277.33 829.449 310.656C829.634 344.088 803.079 371.578 770.376 371.766Z" fill="#9CA3AF"/>
<path d="M113.387 584.684C109.217 580.244 108.621 574.84 106.834 556.695C105.444 542.604 97.898 535.462 84.9902 532.953C100.281 531.023 111.6 519.441 111.6 501.683C111.6 477.941 95.5151 463.078 63.1471 463.078H0V584.684H33.1622V544.341H55.6013C66.9201 544.341 73.076 547.43 74.0688 561.328C75.0617 573.874 76.6503 581.403 79.2319 584.684H113.387ZM33.1622 519.056V489.329H57.1899C71.4874 489.329 78.6364 494.541 78.6364 504.385C78.6364 515.581 71.4874 519.056 57.1899 519.056H33.1622Z" fill="#9CA3AF"/>
<path d="M187.026 553.993C184.048 560.749 178.487 563.644 169.75 563.644C160.019 563.644 152.077 558.625 151.283 548.009H213.436V539.322C213.436 515.967 197.749 496.278 168.161 496.278C140.559 496.278 119.907 515.774 119.907 542.99C119.907 570.4 140.162 587 168.558 587C191.99 587 208.274 575.998 212.841 556.309L187.026 553.993ZM151.68 532.953C152.871 524.846 157.438 518.669 167.764 518.669C177.296 518.669 182.459 525.232 182.856 532.953H151.68Z" fill="#9CA3AF"/>
<path d="M277.714 548.781C277.714 559.976 270.367 566.539 261.233 566.539C255.871 566.539 252.296 563.644 252.296 559.205C252.296 553.607 256.864 551.29 264.609 549.746L277.714 547.43V548.781ZM309.288 530.058C309.288 506.122 292.012 496.278 268.58 496.278C241.971 496.278 227.475 509.404 224.695 528.32L254.481 530.251C255.871 523.88 259.446 519.441 266.595 519.441C274.339 519.441 277.714 523.688 277.714 530.829V532.181L252.893 536.235C233.63 539.516 221.319 546.658 221.319 563.258C221.319 577.928 232.638 586.614 249.914 586.614C264.013 586.614 274.14 581.403 279.303 571.365C282.282 581.21 290.821 586.614 301.743 586.614C310.877 586.614 317.231 584.104 321.798 581.016V564.416C319.217 565.381 317.231 565.768 314.65 565.768C311.274 565.768 309.288 563.837 309.288 559.397V530.058Z" fill="#9CA3AF"/>
<path d="M325.464 541.639C325.464 569.049 345.918 587 373.917 587C400.526 587 415.42 570.4 417.604 549.553L391.193 547.623C389.009 558.239 383.647 563.451 374.314 563.451C364.584 563.451 357.832 557.081 357.832 541.639C357.832 526.197 364.584 519.827 374.314 519.827C383.647 519.827 389.009 524.846 391.193 535.462L417.604 533.725C415.42 513.071 400.526 496.278 373.917 496.278C345.918 496.278 325.464 514.423 325.464 541.639Z" fill="#9CA3AF"/>
<path d="M433.083 560.749C433.083 581.016 447.182 587 462.076 587C474.188 587 481.933 584.104 488.684 579.279V559.012C483.323 561.135 478.954 561.906 474.983 561.906C468.429 561.906 464.855 559.012 464.855 551.676V520.213H487.89V498.595H464.855V474.852H444.6L441.622 486.048C439.438 493.962 436.658 498.595 427.722 499.946L421.168 500.911V520.213H433.083V560.749Z" fill="#9CA3AF"/>
<path d="M650.939 584.684C646.768 580.244 646.173 574.84 644.385 556.695C642.995 542.604 635.449 535.462 622.542 532.953C637.832 531.023 649.151 519.441 649.151 501.683C649.151 477.941 633.066 463.078 600.698 463.078H537.551V584.684H570.713V544.341H593.153C604.472 544.341 610.627 547.43 611.62 561.328C612.613 573.874 614.202 581.403 616.783 584.684H650.939ZM570.713 519.056V489.329H594.742C609.039 489.329 616.188 494.541 616.188 504.385C616.188 515.581 609.039 519.056 594.742 519.056H570.713Z" fill="#9CA3AF"/>
<path d="M689.826 541.639C689.826 528.706 694.592 519.827 705.911 519.827C717.032 519.827 721.996 528.706 721.996 541.639C721.996 554.572 717.032 563.451 705.911 563.451C694.592 563.451 689.826 554.572 689.826 541.639ZM754.364 541.639C754.364 515.001 734.704 496.278 705.911 496.278C676.919 496.278 657.458 515.001 657.458 541.639C657.458 568.469 676.919 587 705.911 587C734.704 587 754.364 568.469 754.364 541.639Z" fill="#9CA3AF"/>
<path d="M825.517 540.867C825.517 553.993 821.547 562.486 811.421 562.486C801.689 562.486 798.313 556.116 798.313 544.534V498.595H766.144V552.834C766.144 570.786 773.488 587 797.718 587C811.019 587 820.752 581.403 825.517 571.751V584.684H857.688V498.595H825.517V540.867Z" fill="#9CA3AF"/>
<path d="M878.327 560.749C878.327 581.016 892.424 587 907.324 587C919.435 587 927.175 584.104 933.926 579.279V559.012C928.565 561.135 924.201 561.906 920.231 561.906C913.673 561.906 910.096 559.012 910.096 551.676V520.213H933.138V498.595H910.096V474.852H889.844L886.87 486.048C884.684 493.962 881.903 498.595 872.967 499.946L866.417 500.911V520.213H878.327V560.749Z" fill="#9CA3AF"/>
<path d="M1008.67 553.993C1005.69 560.749 1000.14 563.644 991.393 563.644C981.669 563.644 973.72 558.625 972.933 548.009H1035.08V539.322C1035.08 515.967 1019.39 496.278 989.81 496.278C962.204 496.278 941.557 515.774 941.557 542.99C941.557 570.4 961.81 587 990.204 587C1013.64 587 1029.92 575.998 1034.49 556.309L1008.67 553.993ZM973.327 532.953C974.516 524.846 979.089 518.669 989.408 518.669C998.94 518.669 1004.11 525.232 1004.5 532.953H973.327Z" fill="#9CA3AF"/>
<path d="M1116.83 499.559C1114.65 497.822 1109.89 496.278 1104.52 496.278C1092.81 496.278 1083.47 504.192 1080.3 513.844V498.595H1048.13V584.684H1080.3V545.307C1080.3 530.829 1087.64 525.425 1099.56 525.425C1105.72 525.425 1110.48 526.583 1114.85 529.092L1116.83 499.559Z" fill="#9CA3AF"/>
</g>
<defs>
<clipPath id="clip0_502_761">
<rect width="1120" height="587" fill="white"/>
</clipPath>
</defs>
</svg>
