<svg width="468" height="223" viewBox="0 0 468 223" fill="none" xmlns="http://www.w3.org/2000/svg">
<path fill-rule="evenodd" clip-rule="evenodd" d="M414 113.4C414 87.8 401.6 67.6 377.9 67.6C354.1 67.6 339.7 87.8 339.7 113.2C339.7 143.3 356.7 158.5 381.1 158.5C393 158.5 402 155.8 408.8 152V132C402 135.4 394.2 137.5 384.3 137.5C374.6 137.5 366 134.1 364.9 122.3H413.8C413.8 121 414 115.8 414 113.4ZM364.6 103.9C364.6 92.6 371.5 87.9 377.8 87.9C383.9 87.9 390.4 92.6 390.4 103.9H364.6ZM301.1 67.6C291.3 67.6 285 72.2 281.5 75.4L280.2 69.2H258.2V185.8L283.2 180.5L283.3 152.2C286.9 154.8 292.2 158.5 301 158.5C318.9 158.5 335.2 144.1 335.2 112.4C335.1 83.4 318.6 67.6 301.1 67.6ZM295.1 136.5C289.2 136.5 285.7 134.4 283.3 131.8L283.2 94.7C285.8 91.8 289.4 89.8 295.1 89.8C304.2 89.8 310.5 100 310.5 113.1C310.5 126.5 304.3 136.5 295.1 136.5ZM223.8 61.7L248.9 56.3V36L223.8 41.3V61.7ZM223.8 69.3H248.9V156.8H223.8V69.3ZM196.9 76.7L195.3 69.3H173.7V156.8H198.7V97.5C204.6 89.8 214.6 91.2 217.7 92.3V69.3C214.5 68.1 202.8 65.9 196.9 76.7ZM146.9 47.6L122.5 52.8L122.4 132.9C122.4 147.7 133.5 158.6 148.3 158.6C156.5 158.6 162.5 157.1 165.8 155.3V135C162.6 136.3 146.8 140.9 146.8 126.1V90.6H165.8V69.3H146.8L146.9 47.6ZM79.3 94.7C79.3 90.8 82.5 89.3 87.8 89.3C95.4 89.3 105 91.6 112.6 95.7V72.2C104.3 68.9 96.1 67.6 87.8 67.6C67.5 67.6 54 78.2 54 95.9C54 123.5 92 119.1 92 131C92 135.6 88 137.1 82.4 137.1C74.1 137.1 63.5 133.7 55.1 129.1V152.9C64.4 156.9 73.8 158.6 82.4 158.6C103.2 158.6 117.5 148.3 117.5 130.4C117.4 100.6 79.3 105.9 79.3 94.7Z" fill="#9CA3AF"/>
</svg>
