<svg width="595" height="75" viewBox="0 0 595 75" fill="none" xmlns="http://www.w3.org/2000/svg">
<path fill-rule="evenodd" clip-rule="evenodd" d="M61.3168 0C44.9657 0 34.7462 8.18182 30.6584 24.5455C36.7901 16.3636 43.9437 13.2955 52.1193 15.3409C56.7839 16.5068 60.1177 19.8955 63.8081 23.6432C69.8194 29.75 76.7777 36.8182 91.9752 36.8182C108.326 36.8182 118.546 28.6364 122.634 12.2727C116.502 20.4545 109.348 23.5227 101.173 21.4773C96.5081 20.3114 93.1743 16.9227 89.4839 13.175C83.4726 7.06818 76.5143 0 61.3168 0ZM30.6584 36.8182C14.3073 36.8182 4.08779 45 0 61.3636C6.13168 53.1818 13.2853 50.1136 21.4609 52.1591C26.1255 53.3273 29.4593 56.7136 33.1497 60.4614C39.161 66.5682 46.1193 73.6364 61.3168 73.6364C77.6679 73.6364 87.8874 65.4545 91.9752 49.0909C85.8435 57.2727 78.6899 60.3409 70.5143 58.2955C65.8497 57.1295 62.5159 53.7409 58.8255 49.9932C52.8142 43.8864 45.8559 36.8182 30.6584 36.8182Z" fill="#9CA3AF"/>
<path fill-rule="evenodd" clip-rule="evenodd" d="M183.941 31.0272H173.24V51.7545C173.24 57.2817 176.865 57.1954 183.941 56.8499V65.2272C169.616 66.9545 163.92 62.9817 163.92 51.7545V31.0272H155.981V22.0453H163.92V10.4453L173.24 7.68164V22.0453H183.941V31.0272ZM224.733 22.0453H234.053V65.2272H224.733V59.009C221.454 63.5863 216.362 66.3499 209.631 66.3499C197.894 66.3499 188.143 56.4181 188.143 43.6363C188.143 30.7681 197.894 20.9225 209.631 20.9225C216.362 20.9225 221.454 23.6863 224.733 28.1772V22.0453ZM211.098 57.4545C218.865 57.4545 224.733 51.6681 224.733 43.6363C224.733 35.6045 218.865 29.8181 211.098 29.8181C203.331 29.8181 197.463 35.6045 197.463 43.6363C197.463 51.6681 203.331 57.4545 211.098 57.4545ZM249.587 15.568C246.307 15.568 243.632 12.8044 243.632 9.60891C243.634 8.02939 244.263 6.51541 245.378 5.39853C246.496 4.28162 248.008 3.65282 249.587 3.64982C251.165 3.65282 252.677 4.28162 253.795 5.39853C254.91 6.51541 255.539 8.02939 255.541 9.60891C255.541 12.8044 252.866 15.568 249.587 15.568ZM244.927 65.2272V22.0453H254.247V65.2272H244.927ZM265.034 65.2272V2.18164H274.354V65.2272H265.034ZM334.849 22.0453H344.687L331.138 65.2272H321.99L313.015 36.1226L303.954 65.2272H294.807L281.258 22.0453H291.096L299.467 51.8408L308.528 22.0453H317.417L326.392 51.8408L334.849 22.0453ZM356.251 15.568C352.971 15.568 350.296 12.8044 350.296 9.60891C350.298 8.02939 350.927 6.51541 352.042 5.39853C353.16 4.28162 354.672 3.65282 356.251 3.64982C357.829 3.65282 359.341 4.28162 360.459 5.39853C361.574 6.51541 362.203 8.02939 362.205 9.60891C362.205 12.8044 359.53 15.568 356.251 15.568ZM351.59 65.2272V22.0453H360.911V65.2272H351.59ZM394.394 20.9225C404.059 20.9225 410.963 27.4863 410.963 38.7136V65.2272H401.643V39.6636C401.643 33.0999 397.846 29.6454 391.978 29.6454C385.851 29.6454 381.018 33.2726 381.018 42.0817V65.2272H371.698V22.0453H381.018V27.5726C383.866 23.0817 388.526 20.9225 394.394 20.9225ZM455.148 4.77255H464.468V65.2272H455.148V59.009C451.868 63.5863 446.777 66.3499 440.046 66.3499C428.309 66.3499 418.558 56.4181 418.558 43.6363C418.558 30.7681 428.309 20.9225 440.046 20.9225C446.777 20.9225 451.868 23.6863 455.148 28.1772V4.77255ZM441.513 57.4545C449.279 57.4545 455.148 51.6681 455.148 43.6363C455.148 35.6045 449.279 29.8181 441.513 29.8181C433.746 29.8181 427.878 35.6045 427.878 43.6363C427.878 51.6681 433.746 57.4545 441.513 57.4545ZM495.708 66.3499C482.677 66.3499 472.925 56.4181 472.925 43.6363C472.925 30.7681 482.677 20.9225 495.708 20.9225C504.165 20.9225 511.5 25.3272 514.952 32.0635L506.926 36.7272C505.028 32.6681 500.799 30.0772 495.621 30.0772C488.027 30.0772 482.245 35.8636 482.245 43.6363C482.245 51.409 488.027 57.1954 495.621 57.1954C500.799 57.1954 505.028 54.5181 507.099 50.5454L515.125 55.1226C511.5 61.9454 504.165 66.3499 495.708 66.3499ZM530.486 33.9636C530.486 41.8226 553.7 37.0726 553.7 53.0499C553.7 61.6863 546.192 66.3499 536.872 66.3499C528.242 66.3499 522.028 62.4636 519.267 56.2454L527.293 51.5817C528.673 55.4681 532.125 57.7999 536.872 57.7999C541.014 57.7999 544.207 56.4181 544.207 52.9636C544.207 45.2772 520.993 49.5954 520.993 34.1363C520.993 26.0181 527.983 20.9225 536.785 20.9225C543.862 20.9225 549.73 24.2045 552.75 29.9045L544.897 34.309C543.344 30.9408 540.324 29.3863 536.785 29.3863C533.42 29.3863 530.486 30.8545 530.486 33.9636ZM570.269 33.9636C570.269 41.8226 593.483 37.0726 593.483 53.0499C593.483 61.6863 585.975 66.3499 576.655 66.3499C568.025 66.3499 561.812 62.4636 559.05 56.2454L567.076 51.5817C568.457 55.4681 571.909 57.7999 576.655 57.7999C580.797 57.7999 583.99 56.4181 583.99 52.9636C583.99 45.2772 560.776 49.5954 560.776 34.1363C560.776 26.0181 567.766 20.9225 576.569 20.9225C583.645 20.9225 589.513 24.2045 592.534 29.9045L584.681 34.309C583.127 30.9408 580.107 29.3863 576.569 29.3863C573.203 29.3863 570.269 30.8545 570.269 33.9636Z" fill="#9CA3AF"/>
</svg>
