<svg width="83" height="83" viewBox="0 0 83 83" fill="none" xmlns="http://www.w3.org/2000/svg">
<g clip-path="url(#clip0_508_913)">
<path d="M28.6558 36.5822L30.4265 6.64346C30.4406 6.40919 30.5321 6.18626 30.6868 6.00971C30.8414 5.83317 31.0503 5.71304 31.2807 5.66821L60.0955 0.0207496C60.2735 -0.014198 60.4574 -0.00282465 60.6297 0.0537783C60.802 0.110381 60.9569 0.210314 61.0795 0.343988C61.202 0.477663 61.2882 0.640592 61.3297 0.817143C61.3711 0.993694 61.3665 1.17794 61.3163 1.35221L55.9282 20.0376C55.8782 20.2115 55.8737 20.3954 55.915 20.5716C55.9563 20.7478 56.0422 20.9104 56.1643 21.044C56.2864 21.1776 56.4407 21.2776 56.6125 21.3345C56.7843 21.3914 56.9679 21.4033 57.1456 21.369L65.4041 19.7782C65.5984 19.7402 65.7995 19.7575 65.9845 19.8281C66.1694 19.8987 66.3309 20.0197 66.4505 20.1775C66.5701 20.3353 66.6431 20.5235 66.661 20.7207C66.679 20.9179 66.6413 21.1161 66.5522 21.293L43.0701 68.1534L42.6448 68.8105C42.5533 68.9592 42.4251 69.0819 42.2724 69.1667C42.1198 69.2515 41.9479 69.2955 41.7733 69.2946C41.1611 69.2946 40.5629 68.769 40.7185 68.0185L44.5054 49.6859C44.5425 49.5063 44.5324 49.3201 44.476 49.1457C44.4195 48.9712 44.3187 48.8144 44.1834 48.6906C44.0481 48.5668 43.883 48.4803 43.7042 48.4395C43.5254 48.3988 43.3391 48.4052 43.1635 48.4582L38.2077 49.9625C38.0323 50.016 37.8459 50.023 37.667 49.9827C37.4881 49.9424 37.3226 49.8564 37.187 49.7329C37.0513 49.6095 36.9501 49.4529 36.8932 49.2785C36.8363 49.1042 36.8257 48.918 36.8624 48.7383L39.2487 37.0664C39.2849 36.8922 39.2765 36.7116 39.2244 36.5414C39.1723 36.3712 39.0781 36.2169 38.9505 36.0928C38.8229 35.9687 38.6661 35.8788 38.4946 35.8313C38.3231 35.7839 38.1423 35.7805 37.9691 35.8214L29.9458 37.6751C29.7856 37.7119 29.6191 37.7109 29.4595 37.6722C29.2998 37.6334 29.1513 37.5581 29.0258 37.452C28.9003 37.346 28.8012 37.2122 28.7364 37.0612C28.6716 36.9103 28.6428 36.7463 28.6524 36.5822H28.6558ZM80.4478 9.1715L59.7739 12.9342L57.8926 19.46L65.0755 18.0767C65.6322 17.9657 66.2095 18.0287 66.7291 18.2569C67.2488 18.4852 67.6857 18.8678 67.9805 19.3528C68.2308 19.7562 68.373 20.2172 68.3936 20.6914C68.4142 21.1656 68.3125 21.6372 68.0981 22.0607L44.6126 68.9246L44.5676 69.011L44.5157 69.0906L44.0938 69.7477C43.8444 70.1383 43.501 70.4602 43.095 70.6838C42.6889 70.9073 42.2333 71.0254 41.7698 71.0272C41.3501 71.0249 40.936 70.9302 40.557 70.7497C40.178 70.5691 39.8435 70.3073 39.5772 69.9828C39.3182 69.6622 39.1341 69.2878 39.0384 68.8869C38.9427 68.486 38.9377 68.0688 39.0239 67.6657L42.5825 50.4398L38.7092 51.6156C38.1794 51.7752 37.6142 51.7743 37.0849 51.6131C36.5556 51.4518 36.0859 51.1374 35.735 50.7095C35.4735 50.3901 35.2865 50.0164 35.1878 49.6155C35.0891 49.2146 35.0811 48.7968 35.1644 48.3925L37.3431 37.7408L30.3331 39.3593C29.8586 39.468 29.3639 39.4508 28.898 39.3095C28.4321 39.1681 28.0113 38.9075 27.6771 38.5535C27.4181 38.2765 27.218 37.9497 27.089 37.593C26.96 37.2363 26.9047 36.8572 26.9266 36.4785L28.2719 13.7572L2.54194 9.15767C2.1455 9.08612 1.73689 9.1292 1.36409 9.28185C0.99129 9.43449 0.669795 9.69035 0.437372 10.0194C0.204948 10.3484 0.0712499 10.7369 0.0519832 11.1393C0.0327165 11.5417 0.128682 11.9412 0.328605 12.2909L40.0476 81.9314C40.2331 82.2573 40.5019 82.5281 40.8265 82.7161C41.1511 82.904 41.5198 83.0023 41.8949 83.0009C42.27 82.9994 42.6379 82.8984 42.9611 82.708C43.2843 82.5177 43.5511 82.2449 43.7341 81.9175L82.675 12.284C82.8702 11.9336 82.9618 11.535 82.9392 11.1346C82.9166 10.7342 82.7807 10.3484 82.5473 10.0223C82.3139 9.69613 81.9927 9.443 81.621 9.29237C81.2493 9.14174 80.8424 9.09983 80.4478 9.1715Z" fill="#9CA3AF"/>
</g>
<defs>
<clipPath id="clip0_508_913">
<rect width="83" height="83" fill="white"/>
</clipPath>
</defs>
</svg>
